<svg xmlns="http://www.w3.org/2000/svg" xmlns:xlink="http://www.w3.org/1999/xlink" version="1.1" width="256" height="256" viewBox="0 0 256 256" xml:space="preserve">

<defs>
</defs>
<g style="stroke: none; stroke-width: 0; stroke-dasharray: none; stroke-linecap: butt; stroke-linejoin: miter; stroke-miterlimit: 10; fill: none; fill-rule: nonzero; opacity: 1;" transform="translate(1.4065934065934016 1.4065934065934016) scale(2.81 2.81)" >
	<circle cx="45" cy="45" r="45" style="stroke: none; stroke-width: 1; stroke-dasharray: none; stroke-linecap: butt; stroke-linejoin: miter; stroke-miterlimit: 10; fill: #C13584; fill-rule: nonzero; opacity: 1;" transform="  matrix(1 0 0 1 0 0) "/>
	<path d="M 56.335 72 H 33.666 c -8.639 0 -15.667 -7.028 -15.667 -15.667 V 33.664 c 0 -8.639 7.028 -15.667 15.667 -15.667 h 22.669 c 8.64 0 15.668 7.028 15.668 15.667 v 22.669 C 72.003 64.972 64.975 72 56.335 72 z M 33.666 21.996 c -6.434 0 -11.667 5.234 -11.667 11.667 v 22.669 C 21.998 62.767 27.232 68 33.666 68 h 22.669 c 6.434 0 11.668 -5.233 11.668 -11.667 V 33.664 c 0 -6.434 -5.234 -11.667 -11.668 -11.667 H 33.666 z" style="stroke: none; stroke-width: 1; stroke-dasharray: none; stroke-linecap: butt; stroke-linejoin: miter; stroke-miterlimit: 10; fill: rgb(255,255,255); fill-rule: nonzero; opacity: 1;" transform=" matrix(1 0 0 1 0 0) " stroke-linecap="round" />
	<path d="M 44.999 59.84 c -8.183 0 -14.839 -6.657 -14.839 -14.839 c 0 -8.183 6.657 -14.839 14.839 -14.839 c 8.182 0 14.839 6.657 14.839 14.839 C 59.838 53.183 53.181 59.84 44.999 59.84 z M 44.999 34.161 c -5.977 0 -10.839 4.862 -10.839 10.839 S 39.021 55.84 44.999 55.84 S 55.838 50.978 55.838 45 S 50.976 34.161 44.999 34.161 z" style="stroke: none; stroke-width: 1; stroke-dasharray: none; stroke-linecap: butt; stroke-linejoin: miter; stroke-miterlimit: 10; fill: rgb(255,255,255); fill-rule: nonzero; opacity: 1;" transform=" matrix(1 0 0 1 0 0) " stroke-linecap="round" />
	<circle cx="59.349000000000004" cy="29.648999999999997" r="2.999" style="stroke: none; stroke-width: 1; stroke-dasharray: none; stroke-linecap: butt; stroke-linejoin: miter; stroke-miterlimit: 10; fill: rgb(255,255,255); fill-rule: nonzero; opacity: 1;" transform="  matrix(1 0 0 1 0 0) "/>
</g>
</svg>