<svg width="500" height="470" viewBox="0 0 500 470" fill="none" xmlns="http://www.w3.org/2000/svg">
<path d="M28.5523 426.158C28.5523 405.298 41.7343 391.163 61.1103 391.163C76.357 391.163 88.0568 400.234 90.5802 414.087H80.751C78.2276 405.298 70.6395 399.969 60.828 399.969C47.1695 399.969 38.1873 410.257 38.1873 426.069C38.1873 441.882 47.1695 452.17 60.828 452.17C70.7454 452.17 78.5982 446.841 81.1216 438.511H90.8449C87.9509 451.976 75.8806 460.959 60.6339 460.959C41.3637 460.959 28.5523 447.123 28.5523 426.158Z" fill="white"/>
<path d="M118.638 412.957C132.297 412.957 142.391 422.875 142.391 436.993C142.391 451.111 132.279 461.029 118.638 461.029C104.998 461.029 94.7801 451.111 94.7801 436.993C94.7801 422.875 104.874 412.957 118.638 412.957ZM118.638 453.194C127.426 453.194 133.603 446.558 133.603 437.011C133.603 427.464 127.426 420.828 118.638 420.828C109.85 420.828 103.674 427.464 103.674 437.011C103.674 446.558 109.762 453.194 118.638 453.194Z" fill="white"/>
<path d="M149.326 459.917V414.175H157.285L158.22 421.199C161.114 415.957 166.92 412.869 173.378 412.869C185.449 412.869 190.972 420.263 190.972 431.946V459.917H182.184V433.905C182.184 424.64 177.878 420.899 171.155 420.899C162.931 420.899 158.149 426.793 158.149 435.687V459.917H149.326Z" fill="white"/>
<path d="M204.419 459.917V421.569H195.437V414.175H204.419V399.863H213.207V414.175H222.189V421.569H213.207V459.917H204.419Z" fill="white"/>
<path d="M223.777 437.099C223.777 422.787 232.847 412.869 246.135 412.869C259.423 412.869 267.647 421.852 267.647 435.423V438.705L232.283 438.793C232.936 448.429 237.983 453.758 246.682 453.758C253.512 453.758 257.994 450.952 259.494 445.711H267.717C265.476 455.541 257.8 461.047 246.488 461.047C233.024 461.047 223.759 451.323 223.759 437.099H223.777ZM232.477 432.881H258.859C258.859 425.311 253.9 420.246 246.135 420.246C238.371 420.246 233.606 424.834 232.477 432.881Z" fill="white"/>
<path d="M274.67 459.917V414.175H282.629L283.564 421.199C286.458 415.957 292.264 412.869 298.722 412.869C310.793 412.869 316.316 420.263 316.316 431.946V459.917H307.528V433.905C307.528 424.64 303.222 420.899 296.499 420.899C288.276 420.899 283.493 426.793 283.493 435.687V459.917H274.67Z" fill="white"/>
<path d="M329.78 459.917V421.569H320.798V414.175H329.78V399.863H338.569V414.175H347.551V421.569H338.569V459.917H329.78Z" fill="white"/>
<path d="M472.136 391.551H374.144C368.921 391.551 364.668 395.786 364.668 401.028V460.023C364.668 465.265 368.921 469.5 374.144 469.5H472.136C477.359 469.5 481.612 465.265 481.612 460.023V401.028C481.612 395.786 477.377 391.551 472.136 391.551ZM426.237 453.317L422.549 442.782H405.52L401.849 453.317H393.538L410.002 407.734H418.173L434.637 453.317H426.219H426.237ZM446.495 453.317H438.519V407.734H446.495V453.317ZM414.079 417.828C413.884 418.693 413.514 420.069 413.073 421.322L407.902 436.04H420.255L415.014 421.322C414.643 420.14 414.202 418.763 414.079 417.828Z" fill="white"/>
<path d="M69.1219 165.945C69.1219 197.923 77.4688 227.994 92.0978 254.077C90.8273 254.148 89.5391 254.183 88.2332 254.183C39.5108 254.183 0 214.67 0 165.945C0 117.221 39.5108 77.7078 88.2332 77.7078C89.5391 77.7078 90.8273 77.7431 92.0978 77.8137C77.4688 103.897 69.1219 133.968 69.1219 165.945Z" fill="white"/>
<path d="M500 165.945C500 214.67 460.489 254.183 411.767 254.183C410.461 254.183 409.173 254.148 407.902 254.077C422.531 227.994 430.878 197.923 430.878 165.945C430.878 133.968 422.531 103.897 407.902 77.8137C409.173 77.7431 410.461 77.7078 411.767 77.7078C460.489 77.7078 500 117.221 500 165.945Z" fill="white"/>
<path d="M250 331.391C341.368 331.391 415.437 257.318 415.437 165.945C415.437 74.5724 341.368 0.5 250 0.5C158.632 0.5 84.5627 74.5724 84.5627 165.945C84.5627 257.318 158.632 331.391 250 331.391Z" fill="white"/>
</svg>
