<svg width="500" height="330" viewBox="0 0 500 330" fill="none" xmlns="http://www.w3.org/2000/svg">
<path d="M69.1219 165C69.1219 196.891 77.4688 226.882 92.0978 252.894C90.8273 252.965 89.5391 253 88.2332 253C39.5108 253 0 213.594 0 165C0 116.406 39.5108 77 88.2332 77C89.5391 77 90.8273 77.0352 92.0978 77.1056C77.4688 103.118 69.1219 133.109 69.1219 165Z" fill="black"/>
<path d="M500 165C500 213.594 460.489 253 411.767 253C410.461 253 409.173 252.965 407.902 252.894C422.531 226.882 430.878 196.891 430.878 165C430.878 133.109 422.531 103.118 407.902 77.1056C409.173 77.0352 410.461 77 411.767 77C460.489 77 500 116.406 500 165Z" fill="black"/>
<path d="M250 330C341.368 330 415.437 256.127 415.437 165C415.437 73.873 341.368 0 250 0C158.632 0 84.5627 73.873 84.5627 165C84.5627 256.127 158.632 330 250 330Z" fill="black"/>
</svg>
