<svg width="500" height="88" viewBox="0 0 500 88" fill="none" xmlns="http://www.w3.org/2000/svg">
<path d="M0 39.3648C0 16.1792 14.5478 0.5 35.9313 0.5C52.7577 0.5 65.6696 10.5739 68.4545 25.9591H57.6069C54.822 16.1988 46.4478 10.2799 35.6197 10.2799C20.5461 10.2799 10.6333 21.7061 10.6333 39.2668C10.6333 56.8276 20.5461 68.2538 35.6197 68.2538C46.5646 68.2538 55.231 62.3349 58.0159 53.0841H68.7466C65.5527 68.0382 52.2318 78.0141 35.4055 78.0141C14.1388 77.9945 0 62.6289 0 39.3648Z" fill="white"/>
<path d="M99.4196 24.7048C114.493 24.7048 125.633 35.7194 125.633 51.3986C125.633 67.0778 114.474 78.0925 99.4196 78.0925C84.3655 78.0925 73.0895 67.0778 73.0895 51.3986C73.0895 35.7194 84.2292 24.7048 99.4196 24.7048ZM99.4196 69.3905C109.118 69.3905 115.934 62.0213 115.934 51.4182C115.934 40.8152 109.118 33.4459 99.4196 33.4459C89.7211 33.4459 82.9049 40.8152 82.9049 51.4182C82.9049 62.0213 89.6237 69.3905 99.4196 69.3905Z" fill="white"/>
<path d="M133.287 76.8577V26.0571H142.07L143.102 33.8575C146.296 28.0366 152.703 24.6068 159.831 24.6068C173.152 24.6068 179.247 32.8188 179.247 45.7933V76.8577H169.549V47.9688C169.549 37.6793 164.797 33.5243 157.377 33.5243C148.302 33.5243 143.024 40.0704 143.024 49.9483V76.8577H133.287Z" fill="white"/>
<path d="M194.087 76.8577V34.2691H184.175V26.0571H194.087V10.1623H203.786V26.0571H213.699V34.2691H203.786V76.8577H194.087Z" fill="white"/>
<path d="M215.451 51.5162C215.451 35.6214 225.462 24.6068 240.126 24.6068C254.791 24.6068 263.866 34.5827 263.866 49.6543V53.2997L224.838 53.3977C225.559 64.0988 231.129 70.0177 240.73 70.0177C248.267 70.0177 253.213 66.9014 254.869 61.0805H263.944C261.471 71.9972 252.999 78.1121 240.516 78.1121C225.656 78.1121 215.432 67.313 215.432 51.5162H215.451ZM225.053 46.8321H254.168C254.168 38.4241 248.695 32.7992 240.126 32.7992C231.557 32.7992 226.299 37.8949 225.053 46.8321Z" fill="white"/>
<path d="M271.617 76.8577V26.0571H280.4L281.433 33.8575C284.626 28.0366 291.034 24.6068 298.162 24.6068C311.482 24.6068 317.578 32.8188 317.578 45.7933V76.8577H307.88V47.9688C307.88 37.6793 303.128 33.5243 295.708 33.5243C286.632 33.5243 281.355 40.0704 281.355 49.9483V76.8577H271.617Z" fill="white"/>
<path d="M332.438 76.8577V34.2691H322.525V26.0571H332.438V10.1623H342.136V26.0571H352.049V34.2691H342.136V76.8577H332.438Z" fill="white"/>
<path d="M489.542 0.931178H381.398C375.633 0.931178 370.939 5.63494 370.939 11.4558V76.9753C370.939 82.7962 375.633 87.5 381.398 87.5H489.542C495.307 87.5 500 82.7962 500 76.9753V11.4558C500 5.63494 495.326 0.931178 489.542 0.931178ZM438.888 69.5277L434.817 57.8271H416.024L411.973 69.5277H402.801L420.971 18.9035H429.988L448.158 69.5277H438.868H438.888ZM461.245 69.5277H452.442V18.9035H461.245V69.5277ZM425.469 30.1141C425.255 31.0745 424.846 32.6032 424.359 33.9947L418.653 50.3403H432.286L426.502 33.9947C426.093 32.6816 425.606 31.1528 425.469 30.1141Z" fill="white"/>
</svg>
